<?xml version="1.0" encoding="UTF-8"?>
<svg width="200px" height="200px" viewBox="0 0 200 200" version="1.1" xmlns="http://www.w3.org/2000/svg" xmlns:xlink="http://www.w3.org/1999/xlink">
    <!-- Generator: Sketch 49.2 (51160) - http://www.bohemiancoding.com/sketch -->
    <title>carita-pan</title>
    <desc>Created with Sketch.</desc>
    <defs></defs>
    <g id="carita-pan" stroke="none" stroke-width="1" fill="none" fill-rule="evenodd">
        <g id="Group" transform="translate(26.000000, 26.000000)" fill-rule="nonzero">
            <path d="M137,78.9988923 C137,113.787077 108.8048,142 74.0077538,142 C39.2107077,142 11,113.789292 11,78.9988923 C11,44.2062769 39.2107077,16 74.0077538,16 C108.8048,16 137,44.2062769 137,78.9988923 Z" id="Shape" fill="#FFFFFF"></path>
            <path d="M74.501114,0 C33.3514916,0 0,33.1190668 0,73.9955735 C0,114.869867 33.3514916,148 74.501114,148 C115.650736,148 149,114.869867 149,73.9955735 C149,33.1190668 115.650736,0 74.501114,0 Z" id="Shape" fill="#FB3449"></path>
            <polygon id="Shape" fill="#FFFFFF" points="104 91.9955736 85.9929167 73.9955736 104 56 92.0070833 44 74 62.011066 55.9929167 44 44 56 61.9960156 73.9955736 44 91.9955736 55.9929167 104 74 86.0044264 92.0070833 104"></polygon>
            <g id="Shape">
                <path d="M148.702,74.351 C148.702,115.414955 115.403836,148.710896 74.351,148.710896 C33.2759254,148.710896 0,115.414955 0,74.351 C0,33.2870448 33.2759254,0 74.351,0 C115.403836,0 148.702,33.2870448 148.702,74.351 Z" fill="#FFC10E"></path>
                <path d="M24.4626866,73.3880597 C24.4626866,100.343716 46.321209,122.195567 73.2813134,122.195567 C100.239194,122.195567 122.082149,100.343716 122.082149,73.3880597 L24.4626866,73.3880597 Z" fill="#333333"></path>
                <path d="M46.7014925,93.4029851 C46.7014925,108.387493 58.8505522,120.541 73.8417313,120.541 C88.8373582,120.541 100.984194,108.387493 100.984194,93.4029851 L46.7014925,93.4029851 Z" fill="#FB3449"></path>
                <path d="M63.3939403,47.2574627 C63.3939403,53.7022687 58.1589254,58.9372836 51.7096716,58.9372836 C45.2626418,58.9372836 40.0298507,53.7022687 40.0298507,47.2574627 C40.0298507,40.808209 45.2626418,35.5820896 51.7096716,35.5820896 C58.1589254,35.5820896 63.3939403,40.8059851 63.3939403,47.2574627 Z" fill="#333333"></path>
                <path d="M107.873776,47.2574627 C107.873776,53.7022687 102.638761,58.9372836 96.1895075,58.9372836 C89.7447015,58.9372836 84.5074627,53.7022687 84.5074627,47.2574627 C84.5074627,40.808209 89.7424776,35.5820896 96.1895075,35.5820896 C102.638761,35.5820896 107.873776,40.8059851 107.873776,47.2574627 Z" fill="#333333"></path>
            </g>
            <g id="Shape">
                <path d="M148.702,74.351 C148.702,115.414955 115.40606,148.710896 74.351,148.710896 C33.2759254,148.710896 0,115.414955 0,74.351 C0,33.2870448 33.2759254,0 74.351,0 C115.40606,0 148.702,33.2870448 148.702,74.351 Z" fill="#FFC10E"></path>
                <path d="M63.3939403,47.2530149 C63.3939403,53.7000448 58.1589254,58.9372836 51.7096716,58.9372836 C45.2626418,58.9372836 40.0298507,53.7022687 40.0298507,47.2530149 C40.0298507,40.808209 45.2626418,35.5820896 51.7096716,35.5820896 C58.1589254,35.5820896 63.3939403,40.8059851 63.3939403,47.2530149 Z" fill="#FFFFFF"></path>
                <path d="M107.871552,47.2530149 C107.871552,53.7000448 102.636537,58.9372836 96.1895075,58.9372836 C89.7447015,58.9372836 84.5074627,53.7022687 84.5074627,47.2530149 C84.5074627,40.808209 89.7424776,35.5820896 96.1895075,35.5820896 C102.638761,35.5820896 107.871552,40.8059851 107.871552,47.2530149 Z" fill="#FFFFFF"></path>
                <path d="M59.8735373,47.717806 C59.8735373,51.9698657 56.4176269,55.4191045 52.1722388,55.4191045 C47.9312985,55.4191045 44.4776119,51.9698657 44.4776119,47.717806 C44.4776119,43.4768657 47.9312985,40.0298507 52.1722388,40.0298507 C56.4198507,40.0298507 59.8735373,43.4746418 59.8735373,47.717806 Z" fill="#333333"></path>
                <path d="M102.129493,47.717806 C102.129493,51.9698657 98.675806,55.4191045 94.4304179,55.4191045 C90.1894776,55.4191045 86.7313433,51.9698657 86.7313433,47.717806 C86.7313433,43.4768657 90.1894776,40.0298507 94.4304179,40.0298507 C98.675806,40.0298507 102.129493,43.4746418 102.129493,47.717806 Z" fill="#333333"></path>
                <path d="M107.545995,99.0232228 C88.952129,117.957342 59.0209201,117.799447 40.5760544,98.7430138 C37.9340842,96.0120884 33.7998902,100.170745 36.4173977,102.892775 C57.0683529,124.222014 90.9046962,124.337656 111.706875,103.175208 C114.351069,100.470969 110.20798,96.3189839 107.545995,99.0232228 Z" fill="#333333"></path>
            </g>
        </g>
    </g>
</svg>