<?xml version="1.0" encoding="UTF-8"?>
<svg width="200px" height="200px" viewBox="0 0 200 200" version="1.1" xmlns="http://www.w3.org/2000/svg" xmlns:xlink="http://www.w3.org/1999/xlink">
    <!-- Generator: Sketch 49.2 (51160) - http://www.bohemiancoding.com/sketch -->
    <title>carita-pañuelo</title>
    <desc>Created with Sketch.</desc>
    <defs></defs>
    <g id="carita-pañuelo" stroke="none" stroke-width="1" fill="none" fill-rule="evenodd">
        <g id="Group" transform="translate(0.000000, 18.000000)" fill-rule="nonzero">
            <path d="M0,96.3969583 C0,96.3969583 17.5286899,130.290248 58,108.943761 C58,108.943761 34.0412888,79.089887 0,96.3969583 Z" id="Shape" fill="#39B54A"></path>
            <path d="M11,143.498328 C11,143.498328 48.8747267,151.228579 57,106 C57,106 18.331746,105.863446 11,143.498328 Z" id="Shape" fill="#39B54A"></path>
            <path d="M177,78.9988923 C177,113.787077 148.8048,142 114.007754,142 C79.2107077,142 51,113.789292 51,78.9988923 C51,44.2062769 79.2107077,16 114.007754,16 C148.8048,16 177,44.2062769 177,78.9988923 Z" id="Shape" fill="#FFFFFF"></path>
            <path d="M114.501114,0 C73.3514916,0 40,33.1190668 40,73.9955735 C40,114.869867 73.3514916,148 114.501114,148 C155.650736,148 189,114.869867 189,73.9955735 C189,33.1190668 155.650736,0 114.501114,0 Z" id="Shape" fill="#FB3449"></path>
            <polygon id="Shape" fill="#FFFFFF" points="144 91.9955736 125.992917 73.9955736 144 56 132.007083 44 114 62.011066 95.9929167 44 84 56 101.996016 73.9955736 84 91.9955736 95.9929167 104 114 86.0044264 132.007083 104"></polygon>
            <g transform="translate(40.000000, 0.000000)" id="Shape">
                <path d="M148.702,74.351 C148.702,115.414955 115.403836,148.710896 74.351,148.710896 C33.2759254,148.710896 0,115.414955 0,74.351 C0,33.2870448 33.2759254,0 74.351,0 C115.403836,0 148.702,33.2870448 148.702,74.351 Z" fill="#FFC10E"></path>
                <path d="M24.4626866,73.3880597 C24.4626866,100.343716 46.321209,122.195567 73.2813134,122.195567 C100.239194,122.195567 122.082149,100.343716 122.082149,73.3880597 L24.4626866,73.3880597 Z" fill="#333333"></path>
                <path d="M46.7014925,93.4029851 C46.7014925,108.387493 58.8505522,120.541 73.8417313,120.541 C88.8373582,120.541 100.984194,108.387493 100.984194,93.4029851 L46.7014925,93.4029851 Z" fill="#FB3449"></path>
                <path d="M63.3939403,47.2574627 C63.3939403,53.7022687 58.1589254,58.9372836 51.7096716,58.9372836 C45.2626418,58.9372836 40.0298507,53.7022687 40.0298507,47.2574627 C40.0298507,40.808209 45.2626418,35.5820896 51.7096716,35.5820896 C58.1589254,35.5820896 63.3939403,40.8059851 63.3939403,47.2574627 Z" fill="#333333"></path>
                <path d="M107.873776,47.2574627 C107.873776,53.7022687 102.638761,58.9372836 96.1895075,58.9372836 C89.7447015,58.9372836 84.5074627,53.7022687 84.5074627,47.2574627 C84.5074627,40.808209 89.7424776,35.5820896 96.1895075,35.5820896 C102.638761,35.5820896 107.873776,40.8059851 107.873776,47.2574627 Z" fill="#333333"></path>
            </g>
            <g transform="translate(40.000000, 0.000000)" id="Shape">
                <path d="M148.702,74.351 C148.702,115.414955 115.40606,148.710896 74.351,148.710896 C33.2759254,148.710896 0,115.414955 0,74.351 C0,33.2870448 33.2759254,0 74.351,0 C115.40606,0 148.702,33.2870448 148.702,74.351 Z" fill="#FFC10E"></path>
                <path d="M63.3939403,47.2530149 C63.3939403,53.7000448 58.1589254,58.9372836 51.7096716,58.9372836 C45.2626418,58.9372836 40.0298507,53.7022687 40.0298507,47.2530149 C40.0298507,40.808209 45.2626418,35.5820896 51.7096716,35.5820896 C58.1589254,35.5820896 63.3939403,40.8059851 63.3939403,47.2530149 Z" fill="#FFFFFF"></path>
                <path d="M107.871552,47.2530149 C107.871552,53.7000448 102.636537,58.9372836 96.1895075,58.9372836 C89.7447015,58.9372836 84.5074627,53.7022687 84.5074627,47.2530149 C84.5074627,40.808209 89.7424776,35.5820896 96.1895075,35.5820896 C102.638761,35.5820896 107.871552,40.8059851 107.871552,47.2530149 Z" fill="#FFFFFF"></path>
                <path d="M59.8735373,47.717806 C59.8735373,51.9698657 56.4176269,55.4191045 52.1722388,55.4191045 C47.9312985,55.4191045 44.4776119,51.9698657 44.4776119,47.717806 C44.4776119,43.4768657 47.9312985,40.0298507 52.1722388,40.0298507 C56.4198507,40.0298507 59.8735373,43.4746418 59.8735373,47.717806 Z" fill="#333333"></path>
                <path d="M102.129493,47.717806 C102.129493,51.9698657 98.675806,55.4191045 94.4304179,55.4191045 C90.1894776,55.4191045 86.7313433,51.9698657 86.7313433,47.717806 C86.7313433,43.4768657 90.1894776,40.0298507 94.4304179,40.0298507 C98.675806,40.0298507 102.129493,43.4746418 102.129493,47.717806 Z" fill="#333333"></path>
                <path d="M107.545995,99.0232228 C88.952129,117.957342 59.0209201,117.799447 40.5760544,98.7430138 C37.9340842,96.0120884 33.7998902,100.170745 36.4173977,102.892775 C57.0683529,124.222014 90.9046962,124.337656 111.706875,103.175208 C114.351069,100.470969 110.20798,96.3189839 107.545995,99.0232228 Z" fill="#333333"></path>
            </g>
            <path d="M48,108.308569 C48,108.308569 120.22234,191.094478 182,104 C182,104 166.853877,160.952293 115.803608,170.999688 C115.803608,171.001912 64.1166855,171.582468 48,108.308569 Z" id="Shape" fill="#39B54A"></path>
        </g>
    </g>
</svg>