<?xml version="1.0" encoding="UTF-8"?>
<svg width="200px" height="200px" viewBox="0 0 200 200" version="1.1" xmlns="http://www.w3.org/2000/svg" xmlns:xlink="http://www.w3.org/1999/xlink">
    <!-- Generator: Sketch 49.2 (51160) - http://www.bohemiancoding.com/sketch -->
    <title>dudoso</title>
    <desc>Created with Sketch.</desc>
    <defs></defs>
    <g id="dudoso" stroke="none" stroke-width="1" fill="none" fill-rule="evenodd">
        <g id="Group" transform="translate(19.000000, 13.000000)">
            <path d="M163,81.5026664 C163,126.512318 126.506985,163 81.5,163 C36.4903484,163 0,126.512318 0,81.5026664 C0,36.4930149 36.4903484,0 81.5,0 C126.506985,7.5785026e-14 163,36.4930149 163,81.5026664 Z" id="Shape" fill="#FFC10E" fill-rule="nonzero"></path>
            <path d="M70,59.0000005 C70,66.1797919 63.9559375,72 56.5,72 C49.046875,72 43,66.1797919 43,59.0000005 C43,51.8229174 49.046875,46.0000009 56.5,46.0000009 C63.9559375,45.9972926 70,51.8202091 70,59.0000005 Z" id="Shape" fill="#FFFFFF" fill-rule="nonzero"></path>
            <path d="M116,61 C116,68.1797917 109.956567,74 102.501406,74 C95.0490574,74 89,68.1797917 89,61 C89,53.8202083 95.0462452,48 102.501406,48 C109.956567,48 116,53.8202083 116,61 Z" id="Shape" fill="#FFFFFF" fill-rule="nonzero"></path>
            <path d="M64,54.504 C64,59.192 60.192,63 55.4986667,63 C50.8106667,63 47,59.192 47,54.504 C47,49.8106667 50.8106667,46 55.4986667,46 C60.192,46 64,49.8106667 64,54.504 Z" id="Shape" fill="#333333" fill-rule="nonzero"></path>
            <path d="M108,57.4973329 C108,62.1914026 104.191403,66 99.5026671,66 C94.8112645,66 91,62.1914026 91,57.4973329 C91,52.8085974 94.8112645,49 99.5026671,49 C104.191403,49 108,52.8085974 108,57.4973329 Z" id="Shape" fill="#333333" fill-rule="nonzero"></path>
            <path d="M55,102.834755 C55,102.834755 81.6531917,95.8981283 102,109" id="Shape" stroke="#333333" stroke-width="2.0262" stroke-linecap="round" stroke-linejoin="round"></path>
            <path d="M65,39 C65,39 50.1783449,14.25 29,39" id="Shape" stroke="#333333" stroke-width="2.0262" stroke-linecap="round" stroke-linejoin="round"></path>
            <path d="M93,42 C93,42 107.821655,17.25 129,42" id="Shape" stroke="#333333" stroke-width="2.0262" stroke-linecap="round" stroke-linejoin="round"></path>
            <path d="M18.339865,131.0331 C18.339865,131.0331 12.3995619,180.396323 50.1884451,174.512978 L71.7809323,167.309703 C71.7809323,167.309703 73.3783703,166.386826 72.6229717,163.714773 C71.8702806,161.04272 68.4181901,161.150032 68.4181901,161.150032 C68.4181901,161.150032 76.1346276,161.89048 75.5606329,153.992364 C75.1030617,147.687822 66.799092,149.93063 66.799092,149.93063 C66.799092,149.93063 73.8088663,148.650942 73.7005654,142.451028 C73.5922645,136.251115 66.4768969,137.962731 66.4768969,137.962731 L98.615182,128.135694 C98.615182,128.135694 101.634069,126.957952 100.87867,122.576966 C100.87867,122.576966 100.87867,119.26641 94.1910912,120.012224 C87.5062196,120.760721 53.751544,127.06258 53.751544,127.06258 C53.751544,127.06258 39.7319955,130.15583 38.5433934,119.904913 C37.3574988,109.64863 36.6048077,105.908829 33.7998151,101.739783 C30.9948224,97.5707373 25.6041462,98.9631021 25.6041462,100.672035 C25.6041462,102.380969 25.7151546,113.707682 25.7151546,113.707682 C25.7151546,113.707682 21.9733594,122.92841 18.339865,131.0331 Z" id="Shape" fill="#FFAD0E" fill-rule="nonzero"></path>
        </g>
    </g>
</svg>