<?xml version="1.0" encoding="UTF-8"?>
<svg width="200px" height="200px" viewBox="0 0 200 200" version="1.1" xmlns="http://www.w3.org/2000/svg" xmlns:xlink="http://www.w3.org/1999/xlink">
    <!-- Generator: Sketch 49.2 (51160) - http://www.bohemiancoding.com/sketch -->
    <title>falso</title>
    <desc>Created with Sketch.</desc>
    <defs></defs>
    <g id="falso" stroke="none" stroke-width="1" fill="none" fill-rule="evenodd">
        <g id="Group" transform="translate(19.000000, 19.000000)">
            <ellipse id="Oval" fill="#FFFFFF" fill-rule="nonzero" cx="77.2552083" cy="87.4427083" rx="65.3697917" ry="68.765625"></ellipse>
            <path d="M76.4049956,0 C34.2022428,0 0,36.0991266 0,80.6510417 C0,125.200309 34.2022428,161.302083 76.4049956,161.302083 C118.612766,161.302083 152.8125,125.200309 152.8125,80.6510417 C152.8125,36.0991266 118.612766,0 76.4049956,0 Z" id="Shape" fill="#FB3449" fill-rule="nonzero"></path>
            <polygon id="Shape" fill="#FFFFFF" fill-rule="nonzero" points="106.96875 100.683282 88.3738017 81.0755208 106.96875 61.46776 94.5704446 48.390625 75.9805159 68.014269 57.3855677 48.390625 44.9947917 61.46776 63.5822106 81.0755208 44.9947917 100.683282 57.3855677 113.760417 75.9805159 94.1526558 94.5704446 113.760417"></polygon>
            <g fill-rule="nonzero" id="Shape">
                <path d="M152.998911,80.7673907 C152.998911,125.241813 118.808034,161.302083 76.6361087,161.302083 C34.4616764,161.302083 0.270798971,125.244457 0.270798971,80.7673907 C0.270798971,36.2903245 34.4616764,0.232698087 76.6361087,0.232698087 C118.808034,0.235342384 152.998911,36.2903245 152.998911,80.7673907 Z" fill="#FFC10E"></path>
                <path d="M26.4981808,80.8229209 C26.4981808,110.021242 48.9418992,133.69034 76.6285865,133.69034 C104.312766,133.69034 126.758992,110.021242 126.758992,80.8229209 L26.4981808,80.8229209 Z" fill="#333333"></path>
                <path d="M48.7538443,101.749883 C48.7538443,117.983219 61.235671,131.149171 76.6285865,131.149171 C92.0215021,131.149171 104.503329,117.983219 104.503329,101.749883 L48.7538443,101.749883 Z" fill="#CA2027"></path>
                <path d="M65.4155032,52.9917008 C65.4155032,59.977932 60.044657,65.6393707 53.4226192,65.6393707 C46.8005814,65.6393707 41.4297351,59.9752877 41.4297351,52.9917008 C41.4297351,46.0081139 46.8005814,40.3440309 53.4226192,40.3440309 C60.044657,40.3440309 65.4155032,46.0054696 65.4155032,52.9917008 Z" fill="#333333"></path>
                <path d="M110.766809,52.9917008 C110.766809,59.977932 105.395962,65.6393707 98.7714172,65.6393707 C92.1493794,65.6393707 86.7810405,59.9752877 86.7810405,52.9917008 C86.7810405,46.0081139 92.1518868,40.3440309 98.7714172,40.3440309 C105.395962,40.3413866 110.766809,46.0054696 110.766809,52.9917008 Z" fill="#333333"></path>
            </g>
            <path d="M140.078125,73.859375 C140.078125,114.649849 108.72147,147.71875 70.0379126,147.71875 C31.3566554,147.71875 0,114.649849 0,73.859375 C0,33.0689006 31.3566554,0 70.0379126,0 C108.72147,0.00242511738 140.078125,33.0689006 140.078125,73.859375 Z" id="Shape" fill="#FFC10E" fill-rule="nonzero"></path>
            <path d="M66.21875,53.4843755 C66.21875,60.5185 60.7059344,66.21875 53.9062805,66.21875 C47.1092002,66.21875 41.5989583,60.5158375 41.5989583,53.4843755 C41.5989583,46.4529134 47.1117739,40.7500009 53.9062805,40.7500009 C60.7059344,40.7473385 66.21875,46.450251 66.21875,53.4843755 Z" id="Shape" fill="#FFFFFF" fill-rule="nonzero"></path>
            <path d="M111.213542,53.4843755 C111.213542,60.5185 105.697576,66.21875 98.9023589,66.21875 C92.101994,66.21875 86.59375,60.5158375 86.59375,53.4843755 C86.59375,46.4529134 92.104568,40.7500009 98.9023589,40.7500009 C105.697576,40.7473385 111.213542,46.450251 111.213542,53.4843755 Z" id="Shape" fill="#FFFFFF" fill-rule="nonzero"></path>
            <path d="M60.2760417,53.484375 C60.2760417,58.168105 56.659381,61.9739583 52.2084839,61.9739583 C47.7600403,61.9739583 44.1458333,58.168105 44.1458333,53.484375 C44.1458333,48.800645 47.762494,44.9947917 52.2084839,44.9947917 C56.659381,44.9947917 60.2760417,48.800645 60.2760417,53.484375 Z" id="Shape" fill="#333333" fill-rule="nonzero"></path>
            <path d="M106.96875,53.484375 C106.96875,58.168105 103.349636,61.9739583 98.9011922,61.9739583 C94.4527487,61.9739583 90.8385417,58.168105 90.8385417,53.484375 C90.8385417,48.800645 94.4527487,44.9947917 98.9011922,44.9947917 C103.349636,44.9947917 106.96875,48.800645 106.96875,53.484375 Z" id="Shape" fill="#333333" fill-rule="nonzero"></path>
            <path d="M53.484375,27.1666667 C53.484375,27.1666667 41.4058124,27.1666667 29.7135417,39.9010417" id="Shape" stroke="#333333" stroke-width="2.0578" stroke-linecap="round" stroke-linejoin="round"></path>
            <path d="M91.6875,18.6770833 C91.6875,18.6770833 103.572917,18.6770833 115.458333,33.109375" id="Shape" stroke="#333333" stroke-width="2.0578" stroke-linecap="round" stroke-linejoin="round"></path>
            <path d="M36.5052083,126.494792 C36.5052083,126.494792 52.9608253,103.601309 69.6145833,107.392536" id="Shape" stroke="#333333" stroke-width="2.0578" stroke-linecap="round" stroke-linejoin="round"></path>
            <path d="M87.8939308,74.7083333 C87.8939308,74.7083333 115.136063,81.1417317 137.300908,80.4030326 C159.465753,79.6643334 163.624029,93.6673839 162.929721,101.776958 C162.235412,109.886532 147.536275,118.611241 125.447172,110.563449 C103.35302,102.518343 79.8020833,103.25167 79.8020833,103.25167" id="Shape" stroke="#FFAD0E" stroke-width="1.6463" fill="#FFC10E" fill-rule="nonzero"></path>
        </g>
    </g>
</svg>