<?xml version="1.0" encoding="UTF-8"?>
<svg width="200px" height="200px" viewBox="0 0 200 200" version="1.1" xmlns="http://www.w3.org/2000/svg" xmlns:xlink="http://www.w3.org/1999/xlink">
    <!-- Generator: Sketch 49.2 (51160) - http://www.bohemiancoding.com/sketch -->
    <title>fuerza</title>
    <desc>Created with Sketch.</desc>
    <defs></defs>
    <g id="fuerza" stroke="none" stroke-width="1" fill="none" fill-rule="evenodd">
        <g id="Group" transform="translate(39.000000, 32.000000)" fill-rule="nonzero">
            <path d="M104.483128,21.5971261 L103.661733,21.5971261 L103.65311,13.4355275 C103.644486,6.00449571 97.6273933,-0.010792662 90.2175945,1.45395546e-05 C82.8077957,0.0108217411 76.8101057,6.03907875 76.8187293,13.4657876 L76.8273528,21.5971261 L76.8187293,21.5971261 L76.8101057,14.287135 C76.8014821,6.85610319 70.7865451,0.840814818 63.3745903,0.85162202 C56.2967988,0.862429221 50.5082303,6.36977912 50.018843,13.3404241 C49.5962882,6.28332151 43.7495107,0.695998318 36.6070424,0.706805519 C29.1993995,0.717612721 23.2017095,6.74586973 23.212489,14.1725786 L23.212489,17.1683349 C22.3458206,11.5572359 17.4993767,7.26461541 11.6590668,7.27326117 C5.21295147,7.28190693 -0.00646166992,12.529884 6.00435851e-06,18.9925905 L0.02372081,38.9945591 C0.02372081,40.3908495 0.271648324,41.7352654 0.722229632,42.9780936 L0.741632655,82.0353199 C0.778282809,88.1089672 2.51808719,94.0442822 5.74976844,99.1193441 L22.2919233,122.76334 L21.6537795,135.613102 L93.8761422,136 L93.6950474,118.63715 L118.895262,72.0473042 C120.835565,68.4593133 121.866081,64.4217428 121.889795,60.3106834 L121.999746,39.7316102 C122.051487,29.7327874 114.195419,21.5971261 104.483128,21.5971261 Z" id="Shape" fill="#FFC10E"></path>
            <g transform="translate(58.000000, 0.000000)" fill="#FFAD0E" id="Shape">
                <path d="M19.2520952,22.9060146 L19.2433333,15.6346812 C19.2345714,8.18568124 13.1209524,2.15584791 5.59228571,2.16668124 C3.59895238,2.16884791 1.70857143,2.59784791 0,3.36268124 C4.65038095,5.50551457 7.87914286,10.1638479 7.88571429,15.5740146 L7.89885714,25.7356812 C9.92504762,23.9741812 12.553619,22.9060146 15.4297143,22.9060146 L19.2520952,22.9060146 Z"></path>
                <path d="M45.4589524,13.468021 C45.4501905,6.01902097 39.3365714,-0.0129790265 31.8079048,2.09734992e-05 C29.8408571,0.00218764017 27.972381,0.420354307 26.2857143,1.16352097 C30.9755238,3.29118764 34.2371429,7.97118764 34.2437143,13.4073543 L34.2524762,21.593021 L45.4699048,21.5908543 L45.4589524,13.468021 Z"></path>
            </g>
            <path d="M22.976537,20.5811268 C22.9701396,14.1761949 17.7903873,8.98931311 11.4100583,9.00001654 C9.49084173,9.00215722 7.68251321,9.47953016 6.08956344,10.3122569 C9.7168828,12.2645624 12.1841423,16.1028121 12.1884073,20.5233283 L12.2118644,40.3332349 C12.2182618,44.8072683 9.69555817,48.6904724 6,50.627793 C7.62920164,51.5054742 9.49084173,52.004254 11.4676348,51.9999727 C17.8436988,51.9914099 23.0063914,46.7938247 22.9999941,40.3931741 L22.976537,20.5811268 Z" id="Shape" fill="#FFAD0E"></path>
            <path d="M48.972322,15.3971469 C48.9638085,7.98734648 43.0235179,1.98708927 35.7082979,2.00002086 C33.6629309,2.00217613 31.7303677,2.47633438 30,3.31473239 C34.6526246,5.3902524 37.9047794,10.0951955 37.9111645,15.5760339 L37.936705,37.7537087 C37.9430901,43.0901443 34.8718471,47.7002557 30.4171612,49.8641416 C32.0581372,50.5969316 33.8672548,51.0042767 35.7742775,50.9999661 C43.0894974,50.9913451 49.0085043,44.9803115 48.9999908,37.5748217 L48.972322,15.3971469 Z" id="Shape" fill="#FFAD0E"></path>
            <path d="M75.2924758,41.4447806 L64.086984,41.4538578 C63.0182459,41.4561271 61.9820251,41.2950076 61,41 C62.4047512,46.1104387 66.7989342,49.8388805 72.0060518,49.8343419 L83.2115437,49.8252648 C83.8228706,49.8252648 84.4211905,49.8865356 85,50 L75.2924758,41.4447806 Z" id="Shape" fill="#FFAD0E"></path>
            <path d="M111.236955,23 C112.473408,25.4817204 113.168913,28.2967742 113.153886,31.2795699 L113.044409,51.7548387 C113.035822,53.5333333 112.82116,55.2967742 112.441209,57.0215054 L85.5633881,108.690323 L82,117.666667 L82.1781694,134.941935 L92.9928376,135 L92.8168148,117.722581 L117.906501,71.3698925 C119.842752,67.8 120.866689,63.7806452 120.890302,59.6924731 L120.99978,39.2172043 C121.034126,32.1032258 117.045707,25.9376344 111.236955,23 Z" id="Shape" fill="#FFAD0E"></path>
            <path d="M92.9971691,57.6402387 C93.0472132,55.9416027 92.433629,54.2493606 91.1672956,52.9876385 C91.1520648,52.9748508 91.1390099,52.9620631 91.1259549,52.9471441 C89.2852023,51.1355499 86.8569755,50.1338448 84.2829681,50.1210571 C84.2612098,50.1210571 84.2416273,50.1210571 84.2242207,50.1210571 L72.9751773,50.1295823 C72.9512432,50.1295823 72.9294849,50.1295823 72.9055507,50.1295823 C71.6370416,50.1210571 70.412049,49.9057971 69.269738,49.5179028 C67.4028755,50.4173061 65.394584,50.8755328 63.3014351,50.8797954 L63.2056986,50.8797954 C56.2495687,50.8414322 50.4988488,45.6325661 49.7634181,39 C48.9627125,45.5942029 43.2272235,50.7263427 36.2863243,50.7391304 L36.1905878,50.7391304 C29.630459,50.7028986 24.1473663,46.0716113 22.9223737,39.9825234 C22.9136704,46.3635976 17.6176991,51.5554135 11.0989111,51.5682012 L11.0140537,51.5682012 C5.98788538,51.5404945 1.68626859,48.413896 0,44.0511509 L0.00652749134,55.5792839 C3.12666835,57.7127025 6.90826166,58.9765558 10.9835921,58.9978687 L11.1076144,59 C15.8596281,58.9914749 20.3984104,57.2672634 23.9036733,54.2493606 C27.4524527,56.7514919 31.7323112,58.1453538 36.1557745,58.1709292 L36.2950277,58.1709292 C41.2580969,58.1624041 45.9513632,56.485081 49.687264,53.4671782 C53.4340441,56.5575448 58.1534203,58.2838875 63.1687095,58.3115942 L63.3079626,58.3115942 C65.5294855,58.3073316 67.7074918,57.9663257 69.8049923,57.2971014 C70.8189293,57.4654731 71.8415696,57.5528559 72.8598583,57.5592498 L92.9971691,57.6402387 Z" id="Shape" fill="#FFAD0E"></path>
        </g>
    </g>
</svg>