<?xml version="1.0" encoding="utf-8"?>
<!-- Generator: Adobe Illustrator 16.0.0, SVG Export Plug-In . SVG Version: 6.00 Build 0)  -->
<!DOCTYPE svg PUBLIC "-//W3C//DTD SVG 1.1//EN" "http://www.w3.org/Graphics/SVG/1.1/DTD/svg11.dtd">
<svg version="1.1" id="Layer_1" xmlns="http://www.w3.org/2000/svg" xmlns:xlink="http://www.w3.org/1999/xlink" x="0px" y="0px"
	 width="1024px" height="768px" viewBox="0 0 1024 768" enable-background="new 0 0 1024 768" xml:space="preserve">
<rect x="60" y="223" fill="#683064" width="300" height="100"/>
<path fill="#FFC10E" d="M144.296,272c0,17.117-13.881,31-31,31c-17.12,0-31-13.883-31-31c0-17.118,13.88-31,31-31
	C130.415,241,144.296,254.882,144.296,272L144.296,272z M144.296,272"/>
<path fill="#333333" d="M92.943,272.025c0,11.234,9.11,20.352,20.352,20.352c11.24,0,20.353-9.117,20.353-20.352H92.943z
	 M92.943,272.025"/>
<path fill="#FB3449" d="M101.98,280.081c0,6.241,5.065,11.315,11.313,11.315c6.253,0,11.315-5.074,11.315-11.315H101.98z
	 M101.98,280.081"/>
<path fill="#FFFFFF" d="M108.74,261.312c0,2.683-2.18,4.862-4.869,4.862c-2.688,0-4.867-2.18-4.867-4.862
	c0-2.692,2.18-4.873,4.867-4.873C106.561,256.438,108.74,258.619,108.74,261.312L108.74,261.312z M108.74,261.312"/>
<path fill="#FFFFFF" d="M127.151,261.312c0,2.683-2.181,4.862-4.868,4.862s-4.868-2.18-4.868-4.862c0-2.692,2.181-4.873,4.868-4.873
	S127.151,258.619,127.151,261.312L127.151,261.312z M127.151,261.312"/>
<path fill="#333333" d="M106.459,261.311c0,1.618-1.319,2.937-2.941,2.937c-1.625,0-2.94-1.318-2.94-2.937
	c0-1.627,1.316-2.945,2.94-2.945C105.14,258.365,106.459,259.684,106.459,261.311L106.459,261.311z M106.459,261.311"/>
<path fill="#333333" d="M124.578,261.311c0,1.618-1.316,2.937-2.941,2.937c-1.621,0-2.94-1.318-2.94-2.937
	c0-1.627,1.319-2.945,2.94-2.945C123.262,258.365,124.578,259.684,124.578,261.311L124.578,261.311z M124.578,261.311"/>
<text transform="matrix(1 0 0 1 162.6958 282.1699)" fill="#FCFCFC" font-family="'FuturaStd-Medium'" font-size="31">Verdadero</text>
<rect x="60" y="364" fill="#683064" width="300" height="100"/>
<path fill="#FFC10E" d="M144.296,413c0,17.117-13.881,31-31,31c-17.12,0-31-13.883-31-31c0-17.118,13.88-31,31-31
	C130.415,382,144.296,395.882,144.296,413L144.296,413z M144.296,413"/>
<path fill="#FFFFFF" d="M107.957,401.227c0,2.683-2.18,4.862-4.869,4.862c-2.688,0-4.867-2.18-4.867-4.862
	c0-2.692,2.18-4.873,4.867-4.873C105.777,396.354,107.957,398.534,107.957,401.227L107.957,401.227z M107.957,401.227"/>
<path fill="#FFFFFF" d="M126.368,401.227c0,2.683-2.181,4.862-4.868,4.862s-4.868-2.18-4.868-4.862c0-2.692,2.181-4.873,4.868-4.873
	S126.368,398.534,126.368,401.227L126.368,401.227z M126.368,401.227"/>
<path fill="#333333" d="M106.521,399.226c0,1.714-1.396,3.109-3.114,3.109c-1.72,0-3.113-1.396-3.113-3.109
	c0-1.723,1.393-3.118,3.113-3.118C105.125,396.107,106.521,397.503,106.521,399.226L106.521,399.226z M106.521,399.226"/>
<path fill="#333333" d="M124.294,399.226c0,1.714-1.393,3.109-3.114,3.109c-1.716,0-3.113-1.396-3.113-3.109
	c0-1.723,1.396-3.118,3.113-3.118C122.901,396.107,124.294,397.503,124.294,399.226L124.294,399.226z M124.294,399.226"/>
<text transform="matrix(1 0 0 1 162.6958 423.1699)" fill="#FCFCFC" font-family="'FuturaStd-Medium'" font-size="31">Inchequeable</text>
<rect x="384" y="223" fill="#683064" width="300" height="100"/>
<text transform="matrix(1 0 0 1 486.6958 282.1699)" fill="#FCFCFC" font-family="'FuturaStd-Medium'" font-size="31">Dudoso</text>
<g>
	<path fill="#FFC10E" d="M467.345,272.15c0,16.88-13.686,30.564-30.565,30.564c-16.88,0-30.565-13.684-30.565-30.564
		s13.685-30.566,30.565-30.566C453.659,241.584,467.345,255.27,467.345,272.15L467.345,272.15z M467.345,272.15"/>
	<path fill="#FFFFFF" d="M431.494,263.39c0,2.651-2.149,4.8-4.8,4.8c-2.65,0-4.8-2.149-4.8-4.8c0-2.65,2.15-4.8,4.8-4.8
		C429.345,258.589,431.494,260.739,431.494,263.39L431.494,263.39z M431.494,263.39"/>
	<path fill="#FFFFFF" d="M449.007,264.544c0,2.651-2.149,4.8-4.8,4.8c-2.65,0-4.801-2.149-4.801-4.8s2.15-4.8,4.801-4.8
		C446.858,259.744,449.007,261.893,449.007,264.544L449.007,264.544z M449.007,264.544"/>
	<path fill="#333333" d="M429.824,261.585c0,1.758-1.428,3.186-3.188,3.186c-1.758,0-3.187-1.428-3.187-3.186
		c0-1.76,1.429-3.189,3.187-3.189C428.396,258.396,429.824,259.825,429.824,261.585L429.824,261.585z M429.824,261.585"/>
	<path fill="#333333" d="M446.45,263.35c0,1.76-1.428,3.188-3.186,3.188c-1.759,0-3.188-1.428-3.188-3.188
		c0-1.758,1.429-3.186,3.188-3.186C445.022,260.164,446.45,261.592,446.45,263.35L446.45,263.35z M446.45,263.35"/>
	
		<path fill="none" stroke="#333333" stroke-width="2.0262" stroke-linecap="round" stroke-linejoin="round" stroke-miterlimit="10" d="
		M426.693,279.829c0,0,9.932-2.392,17.514,2.126"/>
	
		<path fill="none" stroke="#333333" stroke-width="2.0262" stroke-linecap="round" stroke-linejoin="round" stroke-miterlimit="10" d="
		M430.255,255.52c0,0-5.582-8.359-13.558,0"/>
	
		<path fill="none" stroke="#333333" stroke-width="2.0262" stroke-linecap="round" stroke-linejoin="round" stroke-miterlimit="10" d="
		M441.011,257.14c0,0,5.582-8.358,13.558,0"/>
	<path fill="#FFAD0E" d="M412.911,290.739c0,0-2.194,18.4,11.763,16.207l7.975-2.685c0,0,0.59-0.344,0.311-1.34
		c-0.278-0.996-1.553-0.956-1.553-0.956s2.85,0.276,2.638-2.668c-0.169-2.35-3.236-1.514-3.236-1.514s2.589-0.477,2.549-2.788
		c-0.04-2.311-2.668-1.673-2.668-1.673l11.87-3.663c0,0,1.115-0.439,0.836-2.072c0,0,0-1.234-2.47-0.956
		c-2.469,0.279-14.936,2.628-14.936,2.628s-5.178,1.153-5.617-2.668c-0.438-3.823-0.716-5.217-1.752-6.771
		c-1.036-1.554-3.027-1.035-3.027-0.398s0.041,4.859,0.041,4.859S414.253,287.718,412.911,290.739z"/>
</g>
<rect x="695" y="223" fill="#683064" width="300" height="100"/>
<text transform="matrix(1 0 0 1 797.6953 282.1699)" fill="#FCFCFC" font-family="'FuturaStd-Medium'" font-size="31">Falso</text>
<g>
	<circle fill="#FFFFFF" cx="748.563" cy="275.065" r="25.903"/>
	<path fill="#FB3449" d="M748.432,242.089c-16.822,0-30.455,13.632-30.455,30.456c0,16.823,13.633,30.456,30.455,30.456
		c16.824,0,30.456-13.633,30.456-30.456C778.888,255.721,765.256,242.089,748.432,242.089z"/>
	<g>
		<path fill="#FFFFFF" d="M760.779,279.951l-7.409-7.407l7.409-7.407l-4.94-4.94l-7.407,7.413l-7.409-7.413l-4.937,4.94l7.406,7.407
			l-7.406,7.407l4.937,4.94l7.409-7.407l7.407,7.407L760.779,279.951z M760.779,279.951"/>
	</g>
	<g>
		<path fill="#FFC10E" d="M779.019,272.544c0,16.819-13.636,30.456-30.455,30.456c-16.82,0-30.456-13.636-30.456-30.456
			c0-16.82,13.636-30.456,30.456-30.456C765.383,242.089,779.019,255.724,779.019,272.544L779.019,272.544z M779.019,272.544"/>
		<path fill="#333333" d="M728.568,272.565c0,11.042,8.951,19.993,19.993,19.993c11.041,0,19.993-8.951,19.993-19.993H728.568z
			 M728.568,272.565"/>
		<path fill="#CA2027" d="M737.444,280.479c0,6.139,4.978,11.118,11.117,11.118s11.117-4.979,11.117-11.118H737.444z
			 M737.444,280.479"/>
		<path fill="#333333" d="M744.089,262.04c0,2.642-2.142,4.783-4.783,4.783s-4.783-2.142-4.783-4.783
			c0-2.641,2.142-4.783,4.783-4.783S744.089,259.398,744.089,262.04L744.089,262.04z M744.089,262.04"/>
		<path fill="#333333" d="M762.176,262.04c0,2.642-2.142,4.783-4.784,4.783c-2.641,0-4.782-2.142-4.782-4.783
			c0-2.641,2.142-4.783,4.782-4.783C760.034,257.256,762.176,259.398,762.176,262.04L762.176,262.04z M762.176,262.04"/>
	</g>
	<path fill="#FFC10E" d="M778.888,272.544c0,16.82-13.635,30.456-30.456,30.456c-16.82,0-30.455-13.636-30.455-30.456
		c0-16.82,13.635-30.456,30.455-30.456C765.253,242.089,778.888,255.724,778.888,272.544L778.888,272.544z M778.888,272.544"/>
	<path fill="#FFFFFF" d="M743.958,262.04c0,2.642-2.142,4.783-4.784,4.783c-2.641,0-4.782-2.142-4.782-4.783
		s2.142-4.783,4.782-4.783C741.816,257.256,743.958,259.398,743.958,262.04L743.958,262.04z M743.958,262.04"/>
	<path fill="#FFFFFF" d="M762.045,262.04c0,2.642-2.143,4.783-4.783,4.783c-2.642,0-4.782-2.142-4.782-4.783
		s2.141-4.783,4.782-4.783C759.902,257.256,762.045,259.398,762.045,262.04L762.045,262.04z M762.045,262.04"/>
	<path fill="#333333" d="M742.293,262.04c0,1.814-1.474,3.288-3.288,3.288c-1.813,0-3.286-1.474-3.286-3.288
		s1.474-3.288,3.286-3.288C740.819,258.752,742.293,260.226,742.293,262.04L742.293,262.04z M742.293,262.04"/>
	<path fill="#333333" d="M760.719,262.04c0,1.814-1.475,3.288-3.288,3.288s-3.286-1.474-3.286-3.288s1.473-3.288,3.286-3.288
		S760.719,260.226,760.719,262.04L760.719,262.04z M760.719,262.04"/>
	
		<path fill="none" stroke="#333333" stroke-width="2.0578" stroke-linecap="round" stroke-linejoin="round" stroke-miterlimit="10" d="
		M739.176,252.515c0,0-4.784,0-9.415,4.741"/>
	
		<path fill="none" stroke="#333333" stroke-width="2.0578" stroke-linecap="round" stroke-linejoin="round" stroke-miterlimit="10" d="
		M754.691,249.163c0,0,4.737,0,9.474,5.227"/>
	
		<path fill="none" stroke="#333333" stroke-width="2.0578" stroke-linecap="round" stroke-linejoin="round" stroke-miterlimit="10" d="
		M732.614,289.752c0,0,6.644-8.617,13.368-7.19"/>
	<path fill="#FFC10E" stroke="#FFAD0E" stroke-width="1.6463" stroke-miterlimit="10" d="M753.302,270.425
		c0,0,10.79,2.395,19.569,2.12s10.426,4.938,10.151,7.957s-6.097,6.267-14.846,3.271c-8.751-2.995-18.079-2.722-18.079-2.722"/>
</g>
<rect x="695" y="364" fill="#683064" width="300" height="100"/>
<path fill="#333333" d="M103.894,428.643c7.609-6.662,14.174-2.564,14.174-2.564s0.99,0.586,1.285,1.296
	c0.551,1.325-0.155,3.097-6.056,2.376C107.523,429.045,103.894,428.643,103.894,428.643z"/>
<rect x="384" y="364" fill="#683064" width="300" height="100"/>
<g>
	<path fill="#39B54A" d="M790.604,420.311c0,0,7.832,15.422,25.915,5.709C816.519,426.02,805.814,412.436,790.604,420.311z"/>
	<path fill="#39B54A" d="M795.53,441.588c0,0,16.944,3.453,20.579-16.75C816.109,424.838,798.81,424.777,795.53,441.588z"/>
	<path fill="#FFFFFF" d="M870.604,412.314c0,15.703-12.727,28.438-28.434,28.438s-28.441-12.734-28.441-28.438
		c0-15.705,12.734-28.437,28.441-28.437S870.604,396.609,870.604,412.314z"/>
	<path fill="#FB3449" d="M842.025,376.112c-18.469,0-33.438,14.964-33.438,33.433c0,18.468,14.969,33.437,33.438,33.437
		s33.437-14.969,33.437-33.437C875.462,391.076,860.494,376.112,842.025,376.112z"/>
	<g>
		<path fill="#FFFFFF" d="M855.578,417.678l-8.135-8.133l8.135-8.131l-5.418-5.422l-8.135,8.138l-8.135-8.138l-5.418,5.422
			l8.13,8.131l-8.13,8.133l5.418,5.424l8.135-8.131l8.135,8.131L855.578,417.678z M855.578,417.678"/>
	</g>
	<g>
		<path fill="#FFC10E" d="M875.604,409.545c0,18.465-14.973,33.437-33.433,33.437c-18.47,0-33.433-14.972-33.433-33.437
			s14.963-33.433,33.433-33.433C860.631,376.112,875.604,391.08,875.604,409.545L875.604,409.545z M875.604,409.545"/>
		<path fill="#333333" d="M820.217,409.57c0,12.121,9.829,21.947,21.952,21.947c12.122,0,21.944-9.826,21.944-21.947H820.217z
			 M820.217,409.57"/>
		<path fill="#FB3449" d="M829.964,418.258c0,6.738,5.463,12.203,12.204,12.203c6.743,0,12.205-5.465,12.205-12.203H829.964z
			 M829.964,418.258"/>
		<path fill="#333333" d="M837.258,398.014c0,2.898-2.354,5.252-5.254,5.252c-2.899,0-5.252-2.354-5.252-5.252
			c0-2.9,2.353-5.25,5.252-5.25C834.904,392.764,837.258,395.113,837.258,398.014L837.258,398.014z M837.258,398.014"/>
		<path fill="#333333" d="M857.115,398.014c0,2.898-2.354,5.252-5.254,5.252c-2.898,0-5.253-2.354-5.253-5.252
			c0-2.9,2.354-5.25,5.253-5.25C854.761,392.764,857.115,395.113,857.115,398.014L857.115,398.014z M857.115,398.014"/>
	</g>
	<g>
		<path fill="#FFC10E" d="M875.604,409.545c0,18.465-14.972,33.437-33.433,33.437c-18.47,0-33.433-14.972-33.433-33.437
			s14.963-33.433,33.433-33.433C860.632,376.112,875.604,391.08,875.604,409.545L875.604,409.545z M875.604,409.545"/>
		<path fill="#FFFFFF" d="M837.258,398.012c0,2.899-2.354,5.254-5.254,5.254c-2.899,0-5.252-2.354-5.252-5.254
			c0-2.898,2.353-5.248,5.252-5.248C834.904,392.764,837.258,395.113,837.258,398.012L837.258,398.012z M837.258,398.012"/>
		<path fill="#FFFFFF" d="M857.114,398.012c0,2.899-2.354,5.254-5.253,5.254c-2.898,0-5.253-2.354-5.253-5.254
			c0-2.898,2.354-5.248,5.253-5.248C854.761,392.764,857.114,395.113,857.114,398.012L857.114,398.012z M857.114,398.012"/>
		<path fill="#333333" d="M835.856,398.012c0,1.912-1.554,3.463-3.463,3.463c-1.907,0-3.46-1.551-3.46-3.463
			c0-1.907,1.553-3.457,3.46-3.457C834.303,394.555,835.856,396.104,835.856,398.012L835.856,398.012z M835.856,398.012"/>
		<path fill="#333333" d="M854.934,398.012c0,1.912-1.553,3.463-3.462,3.463c-1.907,0-3.462-1.551-3.462-3.463
			c0-1.907,1.555-3.457,3.462-3.457C853.381,394.555,854.934,396.104,854.934,398.012L854.934,398.012z M854.934,398.012"/>
		<path fill="#333333" d="M857.164,420.818c-8.361,8.514-21.82,8.443-30.114-0.126c-1.188-1.228-3.047,0.642-1.87,1.866
			c9.286,9.591,24.501,9.643,33.855,0.127C860.224,421.469,858.361,419.602,857.164,420.818L857.164,420.818z M857.164,420.818"/>
	</g>
	<path fill="#39B54A" d="M812.539,425.038c0,0,32.444,37.218,60.196-1.937c0,0-6.804,25.604-29.737,30.121
		C842.998,453.223,819.779,453.484,812.539,425.038z"/>
</g>
<g>
	<g>
		<path fill="#FFC10E" d="M571.577,534.432c0-2.795-2.265-5.062-5.061-5.062h-11.384h-3.794h-4.558l1.251-5.841
			c0.953-4.459,0.697-9.892,0.131-13.707c-0.565-3.816-3.984-8.28-7.56-8.28h-0.303c-3.049,0-4.143,3.364-4.143,7.591
			c0,20.555-10.118,20.237-10.118,20.237h-2.53v40.479h18.974h12.649h5.061c2.794,0,5.06-2.267,5.06-5.06
			c0-2.794-2.266-5.06-5.06-5.06h3.794c2.796,0,5.06-2.266,5.06-5.061c0-2.794-2.264-5.06-5.06-5.06h3.796
			c2.794,0,5.06-2.265,5.06-5.06c0-3.153-2.04-4.354-5.06-4.801c-1.472-0.219-4.145-0.259-5.06-0.259h3.793
			C569.313,539.491,571.577,537.225,571.577,534.432z"/>
		<path fill="#FFAD0E" d="M569.833,538.226h-15.964c-0.698,0-1.267,0.566-1.267,1.266s0.568,1.265,1.267,1.265h17.02
			c-0.83-0.51-1.881-0.826-3.105-1.006c-1.472-0.219-4.145-0.259-5.06-0.259h3.793C567.794,539.491,568.941,539.004,569.833,538.226
			z"/>
		<path fill="#FFAD0E" d="M571.096,548.347h-17.227c-0.698,0-1.267,0.564-1.267,1.264c0,0.698,0.568,1.266,1.267,1.266h13.434
			c-0.89-0.778-2.04-1.266-3.315-1.266h3.796C569.058,549.61,570.207,549.123,571.096,548.347z"/>
		<path fill="#FFAD0E" d="M567.303,558.465h-15.964c-0.698,0-1.267,0.565-1.267,1.266c0,0.699,0.568,1.264,1.267,1.264h12.169
			c-0.889-0.777-2.04-1.264-3.314-1.264h3.794C565.263,559.73,566.412,559.242,567.303,558.465z"/>
	</g>
	<rect x="507" y="525" fill="#39B54A" width="17" height="51"/>
	<path fill="#39B54A" d="M504.48,504.789c0,0-6.733,15.933,12.353,23.486C516.833,528.275,520.309,511.333,504.48,504.789z"/>
	<path fill="#39B54A" d="M491.399,522.278c0,0,8.29,15.177,26.074,4.921C517.473,527.199,506.359,513.941,491.399,522.278z"/>
</g>
<g>
	<path fill="#FFC10E" d="M556.074,385.643h-0.381l-0.004-3.776c-0.004-3.438-2.795-6.221-6.232-6.216l0,0
		c-3.437,0.005-6.219,2.794-6.215,6.23l0.004,3.762h-0.004l-0.004-3.382c-0.004-3.438-2.794-6.221-6.232-6.216l0,0
		c-3.283,0.005-5.968,2.553-6.195,5.778c-0.196-3.265-2.908-5.85-6.221-5.845l0,0c-3.436,0.005-6.218,2.794-6.213,6.23v1.386
		c-0.402-2.596-2.65-4.582-5.359-4.578l0,0c-2.99,0.004-5.411,2.432-5.408,5.422l0.011,9.254c0,0.646,0.115,1.268,0.324,1.843
		l0.009,18.07c0.017,2.81,0.824,5.556,2.323,7.904l7.673,10.939l-0.296,5.945l33.5,0.179l-0.084-8.033l0,0l0,0l11.689-21.555
		c0.9-1.66,1.378-3.528,1.389-5.43l0.051-9.521C564.223,389.407,560.579,385.643,556.074,385.643z"/>
	<g>
		<path fill="#FFAD0E" d="M543.242,385.617l-0.004-3.356c-0.004-3.438-2.795-6.221-6.232-6.216l0,0
			c-0.91,0.001-1.773,0.199-2.553,0.552c2.123,0.989,3.597,3.139,3.6,5.636l0.006,4.69c0.925-0.813,2.125-1.306,3.438-1.306H543.242
			z"/>
		<path fill="#FFAD0E" d="M555.689,381.867c-0.004-3.438-2.795-6.222-6.232-6.216l0,0c-0.898,0.001-1.751,0.194-2.521,0.537
			c2.141,0.982,3.63,3.142,3.633,5.651l0.004,3.778l5.121-0.001L555.689,381.867z"/>
	</g>
	<path fill="#FFAD0E" d="M518.441,384.427c-0.003-2.992-2.432-5.415-5.424-5.41l0,0c-0.9,0.001-1.748,0.224-2.495,0.613
		c1.701,0.912,2.858,2.705,2.86,4.77l0.011,9.254c0.003,2.09-1.18,3.904-2.913,4.809c0.764,0.41,1.637,0.643,2.564,0.641l0,0
		c2.99-0.004,5.411-2.432,5.408-5.422L518.441,384.427z"/>
	<path fill="#FFAD0E" d="M530.822,382.225c-0.004-3.438-2.795-6.222-6.232-6.216l0,0c-0.961,0.001-1.869,0.221-2.682,0.61
		c2.186,0.963,3.714,3.146,3.717,5.689l0.012,10.29c0.003,2.476-1.44,4.615-3.533,5.619c0.771,0.34,1.621,0.529,2.517,0.527l0,0
		c3.437-0.004,6.218-2.793,6.214-6.229L530.822,382.225z"/>
	<path fill="#FFAD0E" d="M542.998,394.733l-5.169,0.004c-0.493,0.001-0.971-0.07-1.424-0.2c0.648,2.252,2.675,3.895,5.077,3.893
		l5.169-0.004c0.282,0,0.558,0.027,0.825,0.077L542.998,394.733z"/>
	<path fill="#FFAD0E" d="M559.652,386.494c0.576,1.154,0.9,2.463,0.893,3.85l-0.051,9.521c-0.004,0.827-0.104,1.647-0.281,2.449
		l-12.521,24.026l-1.66,4.174l0.083,8.033l5.038,0.027l-0.082-8.034l0,0l0,0l11.688-21.554c0.902-1.66,1.379-3.529,1.39-5.43
		l0.051-9.521C564.216,390.727,562.358,387.86,559.652,386.494z"/>
	<path fill="#FFAD0E" d="M550.684,401.98c0.023-0.797-0.259-1.591-0.841-2.183c-0.007-0.006-0.013-0.012-0.019-0.019
		c-0.846-0.85-1.962-1.32-3.145-1.326c-0.01,0-0.019,0-0.027,0l-5.17,0.004c-0.011,0-0.021,0-0.032,0
		c-0.583-0.004-1.146-0.105-1.671-0.287c-0.858,0.422-1.781,0.637-2.743,0.639h-0.044c-3.197-0.018-5.84-2.462-6.178-5.574
		c-0.368,3.094-3.004,5.502-6.194,5.508h-0.044c-3.015-0.017-5.535-2.19-6.098-5.047c-0.004,2.994-2.438,5.43-5.434,5.436h-0.039
		c-2.31-0.013-4.287-1.48-5.062-3.527l0.003,5.409c1.434,1.001,3.172,1.594,5.045,1.604l0.057,0.001
		c2.184-0.004,4.27-0.813,5.881-2.229c1.631,1.174,3.598,1.828,5.631,1.84h0.064c2.281-0.004,4.438-0.791,6.155-2.207
		c1.722,1.45,3.891,2.26,6.196,2.273h0.064c1.021-0.002,2.022-0.162,2.986-0.476c0.466,0.079,0.936,0.12,1.404,0.123L550.684,401.98
		z"/>
	<rect x="514" y="430" fill="#39B54A" width="39" height="18"/>
	<path fill="#39B54A" d="M499.094,445.206c0,0,12.37,5.228,18.234-9.591C517.328,435.615,504.174,432.918,499.094,445.206z"/>
	<path fill="#39B54A" d="M512.672,455.362c0,0,11.783-6.437,3.82-20.243C516.492,435.119,506.199,443.747,512.672,455.362z"/>
</g>
</svg>
