<?xml version="1.0" encoding="UTF-8"?>
<svg width="200px" height="200px" viewBox="0 0 200 200" version="1.1" xmlns="http://www.w3.org/2000/svg" xmlns:xlink="http://www.w3.org/1999/xlink">
    <!-- Generator: Sketch 49.2 (51160) - http://www.bohemiancoding.com/sketch -->
    <title>ko</title>
    <desc>Created with Sketch.</desc>
    <defs></defs>
    <g id="ko" stroke="none" stroke-width="1" fill="none" fill-rule="evenodd">
        <g id="Group-2" transform="translate(100.000000, 100.000000) scale(1, -1) translate(-100.000000, -100.000000) translate(47.000000, 28.000000)" fill-rule="nonzero">
            <g id="Group">
                <g transform="translate(0.635859, 0.000000)" id="Shape">
                    <path d="M101.434125,69.2882667 C101.434125,63.4001333 96.6545726,58.62432 90.7545162,58.62432 L66.7322549,58.62432 L58.7262413,58.62432 L49.108052,58.62432 L51.7478841,46.31928 C53.7588833,36.9256533 53.2186779,25.4801333 52.0243174,17.4432 C50.8320671,9.40416 43.61737,0 36.0713751,0 L35.4319913,0 C28.9980599,0 26.6895257,7.08682667 26.6895257,15.9917067 C26.6895257,59.29424 5.33874921,58.62432 5.33874921,58.62432 L0,58.62432 L0,143.90008 L40.0385089,143.90008 L66.7301447,143.90008 L77.4097533,143.90008 C83.3055894,143.90008 88.0872517,139.124267 88.0872517,133.240347 C88.0872517,127.35432 83.3055894,122.580613 77.4097533,122.580613 L85.415767,122.580613 C91.3158234,122.580613 96.0932654,117.806907 96.0932654,111.918773 C96.0932654,106.032747 91.3158234,101.25904 85.415767,101.25904 L93.426001,101.25904 C99.321837,101.25904 104.103499,96.48744 104.103499,90.5993067 C104.103499,83.9569867 99.7987372,81.42688 93.426001,80.4852 C90.3198196,80.02384 84.679315,79.9395733 82.7485025,79.9395733 L90.752406,79.9395733 C96.6566828,79.9458933 101.434125,75.1721867 101.434125,69.2882667 Z" fill="#FFC10E"></path>
                    <path d="M97.5556184,77.9466667 L63.868744,77.9466667 C62.39584,77.9466667 61.195149,79.13904 61.195149,80.6137067 C61.195149,82.0883733 62.3937299,83.27864 63.868744,83.27864 L99.7839659,83.27864 C98.0325185,82.20424 95.8147219,81.5385333 93.2318646,81.1593333 C90.1256833,80.6979733 84.4851787,80.6137067 82.5543662,80.6137067 L90.5582697,80.6137067 C93.2529664,80.6116 95.67334,79.5856533 97.5556184,77.9466667 Z" fill="#FFAD0E"></path>
                    <path d="M99.380922,99.7443467 L63.0288933,99.7443467 C61.5559894,99.7443467 60.3552984,100.932507 60.3552984,102.407173 C60.3552984,103.877627 61.5538792,105.074213 63.0288933,105.074213 L91.3770185,105.074213 C89.4989605,103.435227 87.0722563,102.407173 84.38178,102.407173 L92.392014,102.407173 C95.0803802,102.405067 97.5049742,101.37912 99.380922,99.7443467 Z" fill="#FFAD0E"></path>
                    <path d="M91.3770185,121.0596 L57.6901441,121.0596 C56.2172402,121.0596 55.0165491,122.249867 55.0165491,123.72664 C55.0165491,125.1992 56.21513,126.389467 57.6901441,126.389467 L83.3688947,126.389467 C81.4929469,124.752587 79.0641325,123.72664 76.3757663,123.72664 L84.38178,123.72664 C87.0722563,123.724533 89.4968503,122.69648 91.3770185,121.0596 Z" fill="#FFAD0E"></path>
                </g>
            </g>
        </g>
    </g>
</svg>