<?xml version="1.0" encoding="UTF-8"?>
<svg width="200px" height="200px" viewBox="0 0 200 200" version="1.1" xmlns="http://www.w3.org/2000/svg" xmlns:xlink="http://www.w3.org/1999/xlink">
    <!-- Generator: Sketch 49.2 (51160) - http://www.bohemiancoding.com/sketch -->
    <title>inchequeable</title>
    <desc>Created with Sketch.</desc>
    <defs></defs>
    <g id="inchequeable" stroke="none" stroke-width="1" fill="none" fill-rule="evenodd">
        <path d="M187,100 C187,148.038032 148.043645,187 100,187 C51.9535484,187 13,148.038032 13,100 C13,51.9591613 51.9535484,13 100,13 C148.043645,13 187,51.9591613 187,100 Z" id="Shape" fill="#FFC10E" fill-rule="nonzero"></path>
        <path d="M92,76.0135593 C92,82.6280431 86.6261298,88 79.9975349,88 C73.3714051,88 68,82.6255778 68,76.0135593 C68,69.3768875 73.3738702,64 79.9975349,64 C86.6261298,64 92,69.3744222 92,76.0135593 Z" id="Shape" fill="#FFFFFF" fill-rule="nonzero"></path>
        <path d="M135,76.0135593 C135,82.6280431 129.623665,88 123,88 C116.376335,88 111,82.6255778 111,76.0135593 C111,69.3768875 116.376335,64 123,64 C129.623665,64 135,69.3744222 135,76.0135593 Z" id="Shape" fill="#FFFFFF" fill-rule="nonzero"></path>
        <path d="M88,71.0101178 C88,74.8636585 84.86141,78 80.9988759,78 C77.1318452,78 74,74.8614103 74,71.0101178 C74,67.1363427 77.1318452,64.0000012 80.9988759,64.0000012 C84.86141,63.9977529 88,67.1363427 88,71.0101178 Z" id="Shape" fill="#333333" fill-rule="nonzero"></path>
        <path d="M128,71.0101178 C128,74.8636585 124.868155,78 120.998876,78 C117.140838,78 114,74.8614103 114,71.0101178 C114,67.1363427 117.13859,64.0000012 120.998876,64.0000012 C124.868155,63.9977529 128,67.1363427 128,71.0101178 Z" id="Shape" fill="#333333" fill-rule="nonzero"></path>
        <path d="M80,141.992323 C98.5208315,126.272731 114.500495,135.942333 114.500495,135.942333 C114.500495,135.942333 116.910223,137.325053 117.628274,139.000362 C118.969446,142.126819 117.250993,146.308014 102.887551,144.606749 C88.8332366,142.940878 80,141.992323 80,141.992323 Z" id="Shape" fill="#333333" fill-rule="nonzero"></path>
    </g>
</svg>