<?xml version="1.0" encoding="utf-8"?>
<!-- Generator: Adobe Illustrator 16.0.0, SVG Export Plug-In . SVG Version: 6.00 Build 0)  -->
<!DOCTYPE svg PUBLIC "-//W3C//DTD SVG 1.1//EN" "http://www.w3.org/Graphics/SVG/1.1/DTD/svg11.dtd">
<svg version="1.1" id="Layer_1" xmlns="http://www.w3.org/2000/svg" xmlns:xlink="http://www.w3.org/1999/xlink" x="0px" y="0px"
	 width="300px" height="100px" viewBox="0 0 300 100" enable-background="new 0 0 300 100" xml:space="preserve">
<rect fill="#683064" width="300" height="100"/>
<g>
	<path fill="#39B54A" d="M95.604,56.311c0,0,7.832,15.422,25.915,5.709C121.519,62.02,110.814,48.436,95.604,56.311z"/>
	<path fill="#39B54A" d="M100.53,77.588c0,0,16.944,3.453,20.579-16.75C121.109,60.838,103.81,60.777,100.53,77.588z"/>
	<path fill="#FFFFFF" d="M175.604,48.314c0,15.703-12.727,28.438-28.434,28.438s-28.441-12.734-28.441-28.438
		c0-15.705,12.734-28.437,28.441-28.437S175.604,32.609,175.604,48.314z"/>
	<path fill="#FB3449" d="M147.025,12.112c-18.469,0-33.438,14.964-33.438,33.433c0,18.468,14.969,33.437,33.438,33.437
		s33.437-14.969,33.437-33.437C180.462,27.076,165.494,12.112,147.025,12.112z"/>
	<g>
		<path fill="#FFFFFF" d="M160.578,53.678l-8.135-8.133l8.135-8.131l-5.418-5.422l-8.135,8.138l-8.135-8.138l-5.418,5.422
			l8.13,8.131l-8.13,8.133l5.418,5.424l8.135-8.131l8.135,8.131L160.578,53.678z M160.578,53.678"/>
	</g>
	<g>
		<path fill="#FFC10E" d="M180.604,45.545c0,18.465-14.973,33.437-33.433,33.437c-18.47,0-33.433-14.972-33.433-33.437
			s14.963-33.433,33.433-33.433C165.631,12.112,180.604,27.08,180.604,45.545L180.604,45.545z M180.604,45.545"/>
		<path fill="#333333" d="M125.217,45.57c0,12.121,9.829,21.947,21.952,21.947c12.122,0,21.944-9.826,21.944-21.947H125.217z
			 M125.217,45.57"/>
		<path fill="#FB3449" d="M134.964,54.258c0,6.738,5.463,12.203,12.204,12.203c6.743,0,12.205-5.465,12.205-12.203H134.964z
			 M134.964,54.258"/>
		<path fill="#333333" d="M142.258,34.014c0,2.898-2.354,5.252-5.254,5.252c-2.899,0-5.252-2.354-5.252-5.252
			c0-2.9,2.353-5.25,5.252-5.25C139.904,28.764,142.258,31.113,142.258,34.014L142.258,34.014z M142.258,34.014"/>
		<path fill="#333333" d="M162.115,34.014c0,2.898-2.354,5.252-5.254,5.252c-2.898,0-5.253-2.354-5.253-5.252
			c0-2.9,2.354-5.25,5.253-5.25C159.761,28.764,162.115,31.113,162.115,34.014L162.115,34.014z M162.115,34.014"/>
	</g>
	<g>
		<path fill="#FFC10E" d="M180.604,45.545c0,18.465-14.972,33.437-33.433,33.437c-18.47,0-33.433-14.972-33.433-33.437
			s14.963-33.433,33.433-33.433C165.632,12.112,180.604,27.08,180.604,45.545L180.604,45.545z M180.604,45.545"/>
		<path fill="#FFFFFF" d="M142.258,34.012c0,2.899-2.354,5.254-5.254,5.254c-2.899,0-5.252-2.354-5.252-5.254
			c0-2.898,2.353-5.248,5.252-5.248C139.904,28.764,142.258,31.113,142.258,34.012L142.258,34.012z M142.258,34.012"/>
		<path fill="#FFFFFF" d="M162.114,34.012c0,2.899-2.354,5.254-5.253,5.254c-2.898,0-5.253-2.354-5.253-5.254
			c0-2.898,2.354-5.248,5.253-5.248C159.761,28.764,162.114,31.113,162.114,34.012L162.114,34.012z M162.114,34.012"/>
		<path fill="#333333" d="M140.856,34.012c0,1.912-1.554,3.463-3.463,3.463c-1.907,0-3.46-1.551-3.46-3.463
			c0-1.907,1.553-3.457,3.46-3.457C139.303,30.555,140.856,32.104,140.856,34.012L140.856,34.012z M140.856,34.012"/>
		<path fill="#333333" d="M159.934,34.012c0,1.912-1.553,3.463-3.462,3.463c-1.907,0-3.462-1.551-3.462-3.463
			c0-1.907,1.555-3.457,3.462-3.457C158.381,30.555,159.934,32.104,159.934,34.012L159.934,34.012z M159.934,34.012"/>
		<path fill="#333333" d="M162.164,56.818c-8.361,8.514-21.82,8.443-30.114-0.126c-1.188-1.228-3.047,0.642-1.87,1.866
			c9.286,9.591,24.501,9.643,33.855,0.127C165.224,57.469,163.361,55.602,162.164,56.818L162.164,56.818z M162.164,56.818"/>
	</g>
	<path fill="#39B54A" d="M117.539,61.038c0,0,32.444,37.218,60.196-1.937c0,0-6.804,25.604-29.737,30.121
		C147.998,89.223,124.779,89.484,117.539,61.038z"/>
</g>
</svg>
