<?xml version="1.0" encoding="utf-8"?>
<!-- Generator: Adobe Illustrator 16.0.0, SVG Export Plug-In . SVG Version: 6.00 Build 0)  -->
<!DOCTYPE svg PUBLIC "-//W3C//DTD SVG 1.1//EN" "http://www.w3.org/Graphics/SVG/1.1/DTD/svg11.dtd">
<svg version="1.1" id="Layer_1" xmlns="http://www.w3.org/2000/svg" xmlns:xlink="http://www.w3.org/1999/xlink" x="0px" y="0px"
	 width="300px" height="100px" viewBox="0 0 300 100" enable-background="new 0 0 300 100" xml:space="preserve">
<rect fill="#683064" width="300" height="100"/>
<g>
	<path fill="#FFC10E" d="M172.074,21.643h-0.381l-0.004-3.776c-0.004-3.438-2.795-6.221-6.232-6.216l0,0
		c-3.437,0.005-6.219,2.794-6.215,6.23l0.004,3.762h-0.004l-0.004-3.382c-0.004-3.438-2.794-6.221-6.232-6.216l0,0
		c-3.283,0.005-5.968,2.553-6.195,5.778c-0.196-3.265-2.908-5.85-6.221-5.845l0,0c-3.436,0.005-6.218,2.794-6.213,6.23v1.386
		c-0.402-2.596-2.65-4.582-5.359-4.578l0,0c-2.99,0.004-5.411,2.432-5.408,5.422l0.011,9.254c0,0.646,0.115,1.268,0.324,1.843
		l0.009,18.07c0.017,2.81,0.824,5.556,2.323,7.904l7.673,10.939l-0.296,5.945l33.5,0.179l-0.084-8.033l0,0l0,0l11.689-21.555
		c0.9-1.66,1.378-3.528,1.389-5.43l0.051-9.521C180.223,25.407,176.579,21.643,172.074,21.643z"/>
	<g>
		<path fill="#FFAD0E" d="M159.242,21.617l-0.004-3.356c-0.004-3.438-2.795-6.221-6.232-6.216l0,0
			c-0.91,0.001-1.773,0.199-2.553,0.552c2.123,0.989,3.597,3.139,3.6,5.636l0.006,4.69c0.925-0.813,2.125-1.306,3.438-1.306H159.242
			z"/>
		<path fill="#FFAD0E" d="M171.689,17.867c-0.004-3.438-2.795-6.222-6.232-6.216l0,0c-0.898,0.001-1.751,0.194-2.521,0.537
			c2.141,0.982,3.63,3.142,3.633,5.651l0.004,3.778l5.121-0.001L171.689,17.867z"/>
	</g>
	<path fill="#FFAD0E" d="M134.441,20.427c-0.003-2.992-2.432-5.415-5.424-5.41l0,0c-0.9,0.001-1.748,0.224-2.495,0.613
		c1.701,0.912,2.858,2.705,2.86,4.77l0.011,9.254c0.003,2.09-1.18,3.904-2.913,4.809c0.764,0.41,1.637,0.643,2.564,0.641l0,0
		c2.99-0.004,5.411-2.432,5.408-5.422L134.441,20.427z"/>
	<path fill="#FFAD0E" d="M146.822,18.225c-0.004-3.438-2.795-6.222-6.232-6.216l0,0c-0.961,0.001-1.869,0.221-2.682,0.61
		c2.186,0.963,3.714,3.146,3.717,5.689l0.012,10.29c0.003,2.476-1.44,4.615-3.533,5.619c0.771,0.34,1.621,0.529,2.517,0.527l0,0
		c3.437-0.004,6.218-2.793,6.214-6.229L146.822,18.225z"/>
	<path fill="#FFAD0E" d="M158.998,30.733l-5.169,0.004c-0.493,0.001-0.971-0.07-1.424-0.2c0.648,2.252,2.675,3.895,5.077,3.893
		l5.169-0.004c0.282,0,0.558,0.027,0.825,0.077L158.998,30.733z"/>
	<path fill="#FFAD0E" d="M175.652,22.494c0.576,1.154,0.9,2.463,0.893,3.85l-0.051,9.521c-0.004,0.827-0.104,1.647-0.281,2.449
		L163.691,62.34l-1.66,4.174l0.083,8.033l5.038,0.027l-0.082-8.034l0,0l0,0l11.688-21.554c0.902-1.66,1.379-3.529,1.39-5.43
		l0.051-9.521C180.216,26.727,178.358,23.86,175.652,22.494z"/>
	<path fill="#FFAD0E" d="M166.684,37.98c0.023-0.797-0.259-1.591-0.841-2.183c-0.007-0.006-0.013-0.012-0.019-0.019
		c-0.846-0.85-1.962-1.32-3.145-1.326c-0.01,0-0.019,0-0.027,0l-5.17,0.004c-0.011,0-0.021,0-0.032,0
		c-0.583-0.004-1.146-0.105-1.671-0.287c-0.858,0.422-1.781,0.637-2.743,0.639h-0.044c-3.197-0.018-5.84-2.462-6.178-5.574
		c-0.368,3.094-3.004,5.502-6.194,5.508h-0.044c-3.015-0.017-5.535-2.19-6.098-5.047c-0.004,2.994-2.438,5.43-5.434,5.436h-0.039
		c-2.31-0.013-4.287-1.48-5.062-3.527l0.003,5.409c1.434,1.001,3.172,1.594,5.045,1.604l0.057,0.001
		c2.184-0.004,4.27-0.813,5.881-2.229c1.631,1.174,3.598,1.828,5.631,1.84h0.064c2.281-0.004,4.438-0.791,6.155-2.207
		c1.722,1.45,3.891,2.26,6.196,2.273h0.064c1.021-0.002,2.022-0.162,2.986-0.476c0.466,0.079,0.936,0.12,1.404,0.123L166.684,37.98z
		"/>
	<rect x="130" y="66" fill="#39B54A" width="39" height="18"/>
	<path fill="#39B54A" d="M115.094,81.206c0,0,12.37,5.228,18.234-9.591C133.328,71.615,120.174,68.918,115.094,81.206z"/>
	<path fill="#39B54A" d="M128.672,91.362c0,0,11.783-6.437,3.82-20.243C132.492,71.119,122.199,79.747,128.672,91.362z"/>
</g>
</svg>
