<?xml version="1.0" encoding="UTF-8"?>
<svg width="200px" height="200px" viewBox="0 0 200 200" version="1.1" xmlns="http://www.w3.org/2000/svg" xmlns:xlink="http://www.w3.org/1999/xlink">
    <!-- Generator: Sketch 49.2 (51160) - http://www.bohemiancoding.com/sketch -->
    <title>verdadero</title>
    <desc>Created with Sketch.</desc>
    <defs></defs>
    <g id="verdadero" stroke="none" stroke-width="1" fill="none" fill-rule="evenodd">
        <path d="M182,95 C182,140.829387 144.834742,178 99,178 C53.1625806,178 16,140.829387 16,95 C16,49.1679355 53.1625806,12 99,12 C144.834742,12 182,49.1679355 182,95 Z" id="Shape" fill="#FFC10E" fill-rule="nonzero"></path>
        <path d="M43,95 C43,124.255208 67.6185972,148 97.9986488,148 C128.373296,148 153,124.257812 153,95 L43,95 Z" id="Shape" fill="#333333" fill-rule="nonzero"></path>
        <path d="M67,116 C67,131.995493 80.8779388,145 97.99726,145 C115.130281,145 129,131.995493 129,116 L67,116 Z" id="Shape" fill="#FB3449" fill-rule="nonzero"></path>
        <path d="M86,65.5152547 C86,72.9565487 79.9543961,79 72.4972268,79 C65.0428307,79 59,72.9537753 59,65.5152547 C59,58.0489992 65.0456039,52.000001 72.4972268,52.000001 C79.9571693,51.9972275 86,58.0462257 86,65.5152547 Z" id="Shape" fill="#FFFFFF" fill-rule="nonzero"></path>
        <path d="M137,65.5152542 C137,72.9565485 130.951623,79 123.5,79 C116.048377,79 110,72.953775 110,65.5152542 C110,58.0489985 116.048377,52 123.5,52 C130.951623,52 137,58.046225 137,65.5152542 Z" id="Shape" fill="#FFFFFF" fill-rule="nonzero"></path>
        <path d="M80,66.0108814 C80,70.4121051 76.4114946,74 71.9986397,74 C67.5776229,74 64,70.4148252 64,66.0108814 C64,61.5851763 67.5803435,58.0000015 71.9986397,58.0000015 C76.4114946,57.9972814 80,61.5851763 80,66.0108814 Z" id="Shape" fill="#333333" fill-rule="nonzero"></path>
        <path d="M128,66.0108814 C128,70.4121051 124.419657,74 119.99864,74 C115.588505,74 112,70.4148252 112,66.0108814 C112,61.5851763 115.588505,58.0000015 119.99864,58.0000015 C124.419657,57.9972814 128,61.5851763 128,66.0108814 Z" id="Shape" fill="#333333" fill-rule="nonzero"></path>
    </g>
</svg>